<mxfile host="app.diagrams.net" modified="2021-05-19T13:39:55.196Z" agent="5.0 (Windows NT 10.0; Win64; x64) AppleWebKit/537.36 (KHTML, like Gecko) Chrome/86.0.4240.198 Safari/537.36" etag="2H0zCiyBSmE6u9h6tNJa" version="14.6.13" type="github">
  <diagram id="kgpKYQtTHZ0yAKxKKP6v" name="Page-1">
    <mxGraphModel dx="584" dy="320" grid="1" gridSize="10" guides="1" tooltips="1" connect="1" arrows="1" fold="1" page="1" pageScale="1" pageWidth="850" pageHeight="1100" math="0" shadow="0">
      <root>
        <mxCell id="0" />
        <mxCell id="1" parent="0" />
        <mxCell id="3nuBFxr9cyL0pnOWT2aG-1" value="：BaseUser" style="shape=umlLifeline;perimeter=lifelinePerimeter;container=1;collapsible=0;recursiveResize=0;rounded=0;shadow=0;strokeWidth=1;fontStyle=4" parent="1" vertex="1">
          <mxGeometry x="120" y="80" width="100" height="300" as="geometry" />
        </mxCell>
        <mxCell id="3nuBFxr9cyL0pnOWT2aG-2" value="" style="points=[];perimeter=orthogonalPerimeter;rounded=0;shadow=0;strokeWidth=1;" parent="3nuBFxr9cyL0pnOWT2aG-1" vertex="1">
          <mxGeometry x="45" y="112" width="10" height="98" as="geometry" />
        </mxCell>
        <mxCell id="iVxcqZNvmsKTozmApMKf-8" value="2：登录验证" style="edgeStyle=orthogonalEdgeStyle;html=1;align=left;spacingLeft=2;endArrow=block;rounded=0;entryX=0.844;entryY=0.012;entryDx=0;entryDy=0;entryPerimeter=0;" edge="1" parent="3nuBFxr9cyL0pnOWT2aG-1">
          <mxGeometry relative="1" as="geometry">
            <mxPoint x="54" y="135" as="sourcePoint" />
            <Array as="points">
              <mxPoint x="84" y="135" />
              <mxPoint x="84" y="156" />
            </Array>
            <mxPoint x="55.440000000000055" y="155.48000000000002" as="targetPoint" />
          </mxGeometry>
        </mxCell>
        <mxCell id="3nuBFxr9cyL0pnOWT2aG-5" value=":Student" style="shape=umlLifeline;perimeter=lifelinePerimeter;container=1;collapsible=0;recursiveResize=0;rounded=0;shadow=0;strokeWidth=1;" parent="1" vertex="1">
          <mxGeometry x="280" y="80" width="100" height="300" as="geometry" />
        </mxCell>
        <mxCell id="3nuBFxr9cyL0pnOWT2aG-6" value="" style="points=[];perimeter=orthogonalPerimeter;rounded=0;shadow=0;strokeWidth=1;" parent="3nuBFxr9cyL0pnOWT2aG-5" vertex="1">
          <mxGeometry x="45" y="80" width="10" height="160" as="geometry" />
        </mxCell>
        <mxCell id="iVxcqZNvmsKTozmApMKf-1" value="&lt;u&gt;学生用户&lt;/u&gt;" style="shape=umlActor;verticalLabelPosition=bottom;verticalAlign=top;html=1;" vertex="1" parent="1">
          <mxGeometry x="45" y="80" width="20" height="38" as="geometry" />
        </mxCell>
        <mxCell id="iVxcqZNvmsKTozmApMKf-3" value="" style="html=1;points=[];perimeter=orthogonalPerimeter;" vertex="1" parent="1">
          <mxGeometry x="50" y="150" width="10" height="30" as="geometry" />
        </mxCell>
        <mxCell id="iVxcqZNvmsKTozmApMKf-4" value="" style="html=1;points=[];perimeter=orthogonalPerimeter;" vertex="1" parent="1">
          <mxGeometry x="50" y="190" width="10" height="30" as="geometry" />
        </mxCell>
        <mxCell id="iVxcqZNvmsKTozmApMKf-5" value="1：登录" style="html=1;verticalAlign=bottom;endArrow=block;entryX=0.364;entryY=-0.005;entryDx=0;entryDy=0;entryPerimeter=0;" edge="1" parent="1" target="3nuBFxr9cyL0pnOWT2aG-2">
          <mxGeometry width="80" relative="1" as="geometry">
            <mxPoint x="60" y="190" as="sourcePoint" />
            <mxPoint x="160" y="188" as="targetPoint" />
          </mxGeometry>
        </mxCell>
        <mxCell id="iVxcqZNvmsKTozmApMKf-6" value="&lt;u&gt;:Elect&lt;/u&gt;" style="html=1;" vertex="1" parent="1">
          <mxGeometry x="430" y="79" width="100" height="40" as="geometry" />
        </mxCell>
        <mxCell id="iVxcqZNvmsKTozmApMKf-9" value="3：进入学生界面" style="html=1;verticalAlign=bottom;endArrow=block;entryX=-0.039;entryY=0.756;entryDx=0;entryDy=0;entryPerimeter=0;" edge="1" parent="1" target="3nuBFxr9cyL0pnOWT2aG-6">
          <mxGeometry width="80" relative="1" as="geometry">
            <mxPoint x="176" y="280" as="sourcePoint" />
            <mxPoint x="284.64" y="281.04999999999995" as="targetPoint" />
          </mxGeometry>
        </mxCell>
        <mxCell id="iVxcqZNvmsKTozmApMKf-10" value="" style="html=1;points=[];perimeter=orthogonalPerimeter;" vertex="1" parent="1">
          <mxGeometry x="50" y="303" width="10" height="30" as="geometry" />
        </mxCell>
        <mxCell id="iVxcqZNvmsKTozmApMKf-13" value="4：点击“选课”" style="html=1;verticalAlign=bottom;endArrow=block;entryX=0.063;entryY=0.877;entryDx=0;entryDy=0;entryPerimeter=0;" edge="1" parent="1" target="3nuBFxr9cyL0pnOWT2aG-6">
          <mxGeometry width="80" relative="1" as="geometry">
            <mxPoint x="60" y="300" as="sourcePoint" />
            <mxPoint x="320" y="300" as="targetPoint" />
          </mxGeometry>
        </mxCell>
        <mxCell id="iVxcqZNvmsKTozmApMKf-15" value="" style="endArrow=none;dashed=1;html=1;" edge="1" parent="1">
          <mxGeometry width="50" height="50" relative="1" as="geometry">
            <mxPoint x="480" y="380" as="sourcePoint" />
            <mxPoint x="480" y="120" as="targetPoint" />
          </mxGeometry>
        </mxCell>
        <mxCell id="iVxcqZNvmsKTozmApMKf-16" value="" style="points=[];perimeter=orthogonalPerimeter;rounded=0;shadow=0;strokeWidth=1;" vertex="1" parent="1">
          <mxGeometry x="475" y="160" width="10" height="160" as="geometry" />
        </mxCell>
      </root>
    </mxGraphModel>
  </diagram>
</mxfile>
